<svg width="1600" height="760" viewBox="0 0 1600 760" fill="none" xmlns="http://www.w3.org/2000/svg" role="img" aria-labelledby="title desc">
  <title id="title">RepairMate warm repair intelligence hero</title>
  <desc id="desc">A warm repair bench scene with a washing machine, tools, RepairGraph nodes, and repair-vs-replace impact cards.</desc>
  <rect width="1600" height="760" rx="36" fill="#F7F4ED"/>
  <path d="M0 0h1600v760H0z" fill="url(#background)"/>
  <circle cx="1325" cy="80" r="330" fill="#DDEEE5" opacity=".85"/>
  <circle cx="175" cy="675" r="260" fill="#F6E1C8" opacity=".8"/>
  <path d="M140 608h1320" stroke="#DDD6C8" stroke-width="3"/>
  <rect x="174" y="608" width="1252" height="46" rx="23" fill="#D98A3D"/>
  <rect x="219" y="636" width="1162" height="54" rx="18" fill="#A8662D"/>
  <rect x="373" y="168" width="476" height="440" rx="42" fill="#FFFFFF" stroke="#DDD6C8" stroke-width="4"/>
  <rect x="420" y="214" width="382" height="104" rx="24" fill="#EFEAE0"/>
  <rect x="456" y="245" width="166" height="16" rx="8" fill="#66736A" opacity=".55"/>
  <rect x="456" y="276" width="112" height="16" rx="8" fill="#66736A" opacity=".35"/>
  <circle cx="740" cy="266" r="36" fill="#2F7D5B"/>
  <circle cx="740" cy="266" r="18" fill="#DDEEE5"/>
  <circle cx="611" cy="444" r="118" fill="#F7F4ED" stroke="#DDD6C8" stroke-width="16"/>
  <circle cx="611" cy="444" r="82" fill="#DDEEE5" stroke="#2F7D5B" stroke-width="10"/>
  <circle cx="611" cy="444" r="43" fill="#FFFFFF" opacity=".75"/>
  <rect x="318" y="464" width="139" height="30" rx="15" fill="#174C38"/>
  <rect x="274" y="488" width="214" height="30" rx="15" fill="#2F7D5B"/>
  <circle cx="317" cy="518" r="18" fill="#1E2520"/>
  <circle cx="445" cy="518" r="18" fill="#1E2520"/>
  <path d="M252 579c48-47 113-47 161 0" stroke="#D98A3D" stroke-width="15" stroke-linecap="round"/>
  <path d="M1134 155c-61 0-111 50-111 111v19" stroke="#2F7D5B" stroke-width="8" stroke-linecap="round"/>
  <path d="M1134 155c61 0 111 50 111 111v19" stroke="#2F7D5B" stroke-width="8" stroke-linecap="round"/>
  <rect x="982" y="270" width="306" height="210" rx="30" fill="#FFFFFF" stroke="#DDD6C8" stroke-width="4"/>
  <rect x="1024" y="312" width="78" height="78" rx="22" fill="#DDEEE5"/>
  <path d="M1078 334a18 18 0 0 0-28 18l-28 28a10 10 0 0 0 14 14l28-28a18 18 0 0 0 18-28l-12 12-8-2-2-8 18-6Z" fill="#2F7D5B"/>
  <rect x="1124" y="318" width="112" height="15" rx="7.5" fill="#1E2520"/>
  <rect x="1124" y="348" width="88" height="13" rx="6.5" fill="#66736A" opacity=".6"/>
  <rect x="1124" y="377" width="129" height="13" rx="6.5" fill="#66736A" opacity=".35"/>
  <rect x="1024" y="418" width="224" height="18" rx="9" fill="#EFEAE0"/>
  <rect x="1024" y="418" width="178" height="18" rx="9" fill="#2F7D5B"/>
  <rect x="962" y="512" width="346" height="106" rx="24" fill="#F6E1C8" stroke="#D98A3D" stroke-width="3"/>
  <text x="1006" y="557" fill="#66736A" font-family="Inter, Arial, sans-serif" font-size="22" font-weight="700" letter-spacing="2">REPLACE AVOIDED</text>
  <text x="1006" y="598" fill="#1E2520" font-family="Inter, Arial, sans-serif" font-size="42" font-weight="800">$608 KEPT</text>
  <g stroke="#66736A" stroke-width="4" stroke-linecap="round" opacity=".42">
    <path d="M890 336h72"/>
    <path d="M890 420h72"/>
    <path d="M1308 336h92"/>
    <path d="M1308 420h72"/>
  </g>
  <g>
    <line x1="940" y1="266" x2="1018" y2="266" stroke="#2F7D5B" stroke-width="6" stroke-linecap="round"/>
    <line x1="1252" y1="266" x2="1332" y2="226" stroke="#2F7D5B" stroke-width="6" stroke-linecap="round"/>
    <line x1="1252" y1="266" x2="1332" y2="306" stroke="#D98A3D" stroke-width="6" stroke-linecap="round"/>
    <circle cx="908" cy="266" r="28" fill="#2F7D5B"/>
    <circle cx="1135" cy="266" r="28" fill="#506A64"/>
    <circle cx="1364" cy="226" r="28" fill="#174C38"/>
    <circle cx="1364" cy="306" r="28" fill="#D98A3D"/>
  </g>
  <rect x="196" y="134" width="242" height="118" rx="26" fill="#FFFFFF" stroke="#DDD6C8" stroke-width="4"/>
  <text x="232" y="181" fill="#66736A" font-family="Inter, Arial, sans-serif" font-size="20" font-weight="700" letter-spacing="2">REPAIRMATE</text>
  <text x="232" y="221" fill="#1E2520" font-family="Inter, Arial, sans-serif" font-size="30" font-weight="800">Repair smarter.</text>
  <path d="M242 326h178l28 28-28 28H242l-28-28 28-28Z" fill="#1E2520"/>
  <path d="M264 354h136" stroke="#F7F4ED" stroke-width="9" stroke-linecap="round"/>
  <path d="M325 354l-18-18M325 354l-18 18" stroke="#D98A3D" stroke-width="9" stroke-linecap="round"/>
  <defs>
    <linearGradient id="background" x1="190" y1="62" x2="1489" y2="677" gradientUnits="userSpaceOnUse">
      <stop stop-color="#FFFDF8"/>
      <stop offset=".48" stop-color="#F7F4ED"/>
      <stop offset="1" stop-color="#DDEEE5"/>
    </linearGradient>
  </defs>
</svg>
